<?xml version="1.0" encoding="utf-8"?>
<!-- Generator: Adobe Illustrator 26.0.2, SVG Export Plug-In . SVG Version: 6.00 Build 0)  -->
<svg version="1.1" id="Layer_1" xmlns="http://www.w3.org/2000/svg" xmlns:xlink="http://www.w3.org/1999/xlink" x="0px" y="0px"
	 viewBox="0 0 595.28 841.89" style="enable-background:new 0 0 595.28 841.89;" xml:space="preserve">
<style type="text/css">
	.st0{fill:#FFFFFF;}
</style>
<path class="st0" d="M427.07,456.34c4.66-3.91,9.33-7.81,14.13-11.83c-0.57-0.68-0.95-1.28-1.47-1.73
	c-15.45-13.44-23.47-30.45-24.8-50.78c-2.2-33.78,22.4-57.9,45.73-65.31c16.57-5.26,32.79-4.29,48.77,2.21c2.46,1,4.74,2.51,6.96,4
	c2.78,1.86,2.79,2.47,0.27,4.58c-10.64,8.9-21.33,17.75-31.97,26.65c-5.63,4.71-11.36,9.3-16.74,14.28
	c-5.5,5.09-6.86,11.64-4.75,18.69c2.27,7.58,7.33,12.67,15.15,14.39c1.65,0.36,4.08-0.63,5.5-1.79
	c17.61-14.38,35.1-28.9,52.61-43.39c5.61-4.64,6.45-4.49,8.51,2.57c13.75,47.06-16.57,81.73-53.93,88.07
	c-15.74,2.67-30.38-1.24-43.99-9.32c-3.67-2.18-3.64-2.19-7.07,0.58c-3.06,2.47-6.15,4.92-9.26,7.34c-0.88,0.68-1.89,1.18-2.84,1.77
	C427.62,456.99,427.34,456.66,427.07,456.34z"/>
<path class="st0" d="M201.5,472.02c-0.15-0.89-0.42-1.79-0.42-2.68c-0.02-27.98-0.35-55.96,0.1-83.93
	c0.3-18.36,8.4-33.5,21.95-45.78c8.14-7.38,17.42-12.75,27.99-15.87c3.7-1.09,4.51-0.7,4.63,3.22c0.24,7.41,0.37,14.83,0.38,22.24
	c0.02,13.21,0.23,26.44-0.23,39.64c-0.47,13.46-2.61,26.7-9.08,38.78c-8.82,16.45-22.57,26.93-40.37,32.16
	c-2.66,0.78-3.7,2.03-3.56,4.68c0.13,2.47,0.03,4.95,0.03,7.43C202.44,471.95,201.97,471.99,201.5,472.02z"/>
<path class="st0" d="M185.01,377.36c-4.22-20.38-14.36-36.63-33.33-46.42c-8.05-4.15-16.55-7.71-25.71-7.83
	c-23.65-0.32-47.3-0.07-70.95-0.16c-2.51-0.01-3.34,0.82-3.28,3.2c0.15,5.45,0.22,10.9,0.23,16.34c0.03,17.88,0,35.76,0.03,53.63
	c0,1.78,0.1,3.59,0.47,5.32c3.7,17.19,12.71,31.17,26.41,42.03c12.56,9.96,27.06,14.23,43.09,13.31
	c11.99-0.69,22.87-4.71,32.95-11.05c1.69-1.07,2.88-1.27,4.37,0.38c4.83,5.34,10.88,8.92,17.54,11.55c2.19,0.87,5.2,1.21,6.31,2.83
	c1.15,1.69,0.46,4.64,0.58,7.03c0.08,1.52,0.18,3.03,0.27,4.54c0.42,0.03,0.84,0.06,1.25,0.09c0.22-1.08,0.62-2.16,0.62-3.24
	c0.14-20.64,0.07-41.29,0.41-61.93C186.47,397.07,187.04,387.16,185.01,377.36z M118.67,408.19c-10.25,0.04-20.38-9.99-20.38-20.29
	c0-11.98,7.06-19.27,21.57-19.95c11.15-0.03,19.33,8.1,19.36,19.23C139.25,398.82,130.14,408.14,118.67,408.19z"/>
<path class="st0" d="M400.24,374.04c-7.3-26.33-24.55-42.72-51-49.48c-10.4-2.66-20.67-1.68-31.01,1.02
	c-21.03,5.49-49.33,26.1-49.84,61.34c-0.4,27.44-0.32,54.88-0.42,82.33c0,0.92,0.28,1.85,0.43,2.77c0.34,0.03,0.69,0.06,1.03,0.09
	c0.2-0.83,0.55-1.66,0.57-2.5c0.07-2.86,0.02-5.72,0.03-8.58c0-3.7,0.2-3.94,4-3.87c8.5,0.16,17,0.41,25.51,0.56
	c15.94,0.26,31.87,0.35,47.7-2.11C385.28,449.7,410.51,411.07,400.24,374.04z M333.84,412.97c-9.99-0.2-19.36-10.58-19.17-21.17
	c0.23-12.77,10.94-19.33,20.43-19.74c11.24-0.49,20.46,8.93,20.29,19.54C355.21,403.77,345.69,413.2,333.84,412.97z"/>
</svg>
